<svg width="102" height="29" viewBox="0 0 102 29" fill="none" xmlns="http://www.w3.org/2000/svg">
<path d="M4 10C4 8.89543 4.89543 8 6 8H15.168C16.2725 8 17.168 8.89543 17.168 10V17.877C17.168 18.9816 16.2725 19.877 15.168 19.877H6C4.89543 19.877 4 18.9816 4 17.877V10Z" fill="#1544EF"/>
<path d="M25.524 18.216C24.756 18.216 24.072 18.032 23.472 17.664C22.88 17.296 22.412 16.784 22.068 16.128C21.724 15.464 21.552 14.692 21.552 13.812C21.552 12.932 21.724 12.164 22.068 11.508C22.412 10.852 22.892 10.34 23.508 9.972C24.124 9.604 24.836 9.42 25.644 9.42C26.564 9.42 27.356 9.652 28.02 10.116C28.684 10.572 29.16 11.204 29.448 12.012L27.672 12.648C27.512 12.2 27.256 11.852 26.904 11.604C26.56 11.348 26.14 11.22 25.644 11.22C25.196 11.22 24.804 11.324 24.468 11.532C24.14 11.74 23.884 12.036 23.7 12.42C23.524 12.804 23.436 13.268 23.436 13.812C23.436 14.356 23.524 14.824 23.7 15.216C23.884 15.6 24.14 15.896 24.468 16.104C24.804 16.312 25.196 16.416 25.644 16.416C25.884 16.416 26.128 16.384 26.376 16.32C26.624 16.248 26.852 16.132 27.06 15.972C27.276 15.804 27.448 15.568 27.576 15.264C27.712 14.96 27.78 14.576 27.78 14.112V13.716L28.2 15.036H25.764V13.356H29.448V18H27.792L27.528 16.824L27.852 17.088C27.7 17.32 27.508 17.524 27.276 17.7C27.052 17.868 26.792 17.996 26.496 18.084C26.208 18.172 25.884 18.216 25.524 18.216ZM30.0514 18L33.5314 9.636H34.9114L38.3794 18H36.3274L34.2274 12.444L32.1034 18H30.0514ZM32.5474 16.584L33.1354 14.904H35.3074L35.9194 16.584H32.5474ZM39.1143 18V9.636H41.8623L43.7823 15.348H43.4463L45.3663 9.636H48.1143V18H46.2303V11.844L46.4103 11.88L44.5263 17.244H42.7023L40.8183 11.88L40.9983 11.844V18H39.1143ZM49.5322 18V9.636H55.1482V11.316H51.4162V12.852H54.9682V14.532H51.4162V16.32H55.1482V18H49.5322ZM56.4111 18V9.636H58.9311C60.3311 9.636 61.4151 10.004 62.1831 10.74C62.9511 11.476 63.3351 12.524 63.3351 13.884C63.3351 15.212 62.9551 16.232 62.1951 16.944C61.4431 17.648 60.3511 18 58.9191 18H56.4111ZM58.2951 16.272H58.7271C59.2951 16.272 59.7791 16.208 60.1791 16.08C60.5871 15.952 60.8991 15.712 61.1151 15.36C61.3311 15 61.4391 14.484 61.4391 13.812C61.4391 13.164 61.3351 12.664 61.1271 12.312C60.9271 11.952 60.6351 11.704 60.2511 11.568C59.8751 11.432 59.4231 11.364 58.8951 11.364H58.2951V16.272ZM68.1948 18.216C67.3868 18.216 66.6748 18.032 66.0588 17.664C65.4428 17.296 64.9628 16.784 64.6188 16.128C64.2748 15.464 64.1028 14.696 64.1028 13.824C64.1028 12.944 64.2748 12.176 64.6188 11.52C64.9628 10.856 65.4428 10.34 66.0588 9.972C66.6748 9.604 67.3868 9.42 68.1948 9.42C69.0108 9.42 69.7268 9.604 70.3428 9.972C70.9588 10.332 71.4388 10.844 71.7828 11.508C72.1268 12.164 72.2988 12.936 72.2988 13.824C72.2988 14.704 72.1228 15.476 71.7708 16.14C71.4268 16.796 70.9468 17.308 70.3308 17.676C69.7148 18.036 69.0028 18.216 68.1948 18.216ZM68.1948 16.416C68.6508 16.416 69.0428 16.312 69.3708 16.104C69.6988 15.888 69.9508 15.588 70.1268 15.204C70.3108 14.812 70.4028 14.352 70.4028 13.824C70.4028 13.288 70.3108 12.828 70.1268 12.444C69.9508 12.052 69.6988 11.752 69.3708 11.544C69.0428 11.328 68.6508 11.22 68.1948 11.22C67.7468 11.22 67.3548 11.324 67.0188 11.532C66.6908 11.74 66.4348 12.04 66.2508 12.432C66.0748 12.816 65.9868 13.28 65.9868 13.824C65.9868 14.36 66.0748 14.824 66.2508 15.216C66.4348 15.6 66.6908 15.896 67.0188 16.104C67.3548 16.312 67.7468 16.416 68.1948 16.416ZM77.1596 18.216C76.3516 18.216 75.6396 18.032 75.0236 17.664C74.4076 17.296 73.9276 16.784 73.5836 16.128C73.2396 15.464 73.0676 14.692 73.0676 13.812C73.0676 12.932 73.2396 12.164 73.5836 11.508C73.9276 10.852 74.4076 10.34 75.0236 9.972C75.6396 9.604 76.3516 9.42 77.1596 9.42C78.0796 9.42 78.8716 9.652 79.5356 10.116C80.1996 10.572 80.6756 11.204 80.9636 12.012L79.1876 12.648C79.0276 12.2 78.7716 11.852 78.4196 11.604C78.0756 11.348 77.6556 11.22 77.1596 11.22C76.7116 11.22 76.3196 11.324 75.9836 11.532C75.6556 11.74 75.3996 12.036 75.2156 12.42C75.0396 12.804 74.9516 13.268 74.9516 13.812C74.9516 14.356 75.0396 14.824 75.2156 15.216C75.3996 15.6 75.6556 15.896 75.9836 16.104C76.3196 16.312 76.7116 16.416 77.1596 16.416C77.6556 16.416 78.0756 16.292 78.4196 16.044C78.7716 15.788 79.0276 15.436 79.1876 14.988L80.9636 15.624C80.6756 16.424 80.1996 17.056 79.5356 17.52C78.8716 17.984 78.0796 18.216 77.1596 18.216ZM83.4583 15.576V13.2L86.8063 9.636H89.3383L83.4583 15.576ZM81.9463 18V9.636H83.8303V18H81.9463ZM87.1303 18L84.6103 13.98L86.0143 12.672L89.3623 18H87.1303Z" fill="white"/>
</svg>
